# Blender v2.83.0 OBJ File: 'map.blend'
# www.blender.org
mtllib secondfloor.mtl
o soraria2f_Cube.070
v -0.315228 0.038934 0.450649
v -0.315228 0.038934 -0.311185
v -0.016404 0.038934 0.371091
v -0.016404 0.038934 -0.311185
v 0.052604 0.038934 1.741369
v 0.342452 0.038934 1.698280
v -0.268270 0.038934 -0.311185
v -0.268270 0.038934 0.335945
v 0.091366 0.038934 1.736048
v -0.063629 0.038934 0.354545
v -0.063629 0.038934 0.371342
v -0.063629 0.038934 -0.311185
v 0.233213 0.038934 1.714931
v -0.220614 0.038934 0.354413
v -0.315229 0.038934 -0.151637
v -0.220614 0.038934 0.371710
v -0.016404 0.038934 0.354585
v -0.016404 0.038934 -0.151637
v -0.268270 0.038934 -0.151637
v -0.063629 0.038934 -0.151637
v -0.220614 0.038934 -0.106148
v -0.107870 0.038934 -0.106149
v -0.016404 0.038934 -0.041214
v -0.220614 0.038934 -0.041213
v -0.107870 0.038934 -0.041214
v -0.220614 0.038934 -0.254052
v -0.107870 0.038934 -0.254052
v -0.220614 0.038934 -0.197125
v -0.107870 0.038934 -0.197125
v -0.107870 0.073000 -0.254052
v -0.220614 0.073000 -0.254052
v -0.220614 0.073000 -0.197125
v -0.107870 0.073000 -0.197125
v -0.063629 0.050789 0.354604
v -0.220614 0.050789 0.354413
v -0.220614 0.050789 0.371710
v -0.244012 0.038934 0.354235
v -0.063629 0.050789 0.371342
v -0.303787 0.038934 0.449741
v -0.187282 0.038934 0.710612
v -0.228428 0.038934 0.711494
v -0.063629 0.073011 0.354545
v -0.063629 0.073011 0.371342
v -0.244012 0.073011 0.354235
v -0.187282 0.073011 0.710612
v 0.091366 0.073011 1.736048
v -0.220614 0.073011 0.371710
v -0.315228 0.073011 0.450649
v -0.228428 0.073011 0.711494
v -0.268270 0.073011 -0.311185
v -0.268270 0.073011 -0.151637
v -0.063629 0.073011 -0.311185
v -0.315229 0.073011 -0.151637
v -0.315228 0.073011 -0.311185
v -0.016404 0.073011 -0.041214
v -0.016404 0.073011 -0.311185
v -0.016404 0.073011 -0.151637
v -0.063629 0.073011 -0.151637
v 0.233213 0.073011 1.714931
v -0.303787 0.073011 0.449741
v 0.342452 0.073011 1.698280
v -0.220614 0.073011 0.354413
v -0.016404 0.073011 0.371091
v 0.052604 0.073011 1.741369
v -0.268270 0.073011 0.335945
v -0.016404 0.073011 0.354585
vt 0.226262 0.347874
vt 0.274291 0.347874
vt 0.274291 0.353882
vt 0.226262 0.353882
vt 0.046258 0.093091
vt 0.069055 0.093091
vt 0.069055 0.101065
vt 0.046258 0.101065
vt 0.744255 0.246825
vt 0.747101 0.250599
vt 0.685577 0.254247
vt 0.747129 0.254239
vt 0.747153 0.278663
vt 0.685579 0.271788
vt 0.271002 0.356470
vt 0.493154 0.358433
vt 0.270993 0.360347
vt 0.661320 0.254250
vt 0.675474 0.254248
vt 0.675476 0.271789
vt 0.661322 0.271791
vt 0.668396 0.246835
vt 0.668400 0.278673
vt 0.150599 0.338258
vt 0.374319 0.340138
vt 0.374319 0.344043
vt 0.150599 0.343705
vt 0.374319 0.336233
vt 0.381283 0.347874
vt 0.409415 0.347874
vt 0.409415 0.353882
vt 0.381283 0.353882
vt 0.643573 0.246838
vt 0.652463 0.254251
vt 0.652465 0.271792
vt 0.643577 0.278676
vt 0.761959 0.241297
vt 0.802684 0.253016
vt 0.211775 0.330021
vt 0.211775 0.336028
vt 0.191895 0.336028
vt 0.191895 0.330021
vt 0.079372 0.344929
vt 0.079372 0.347981
vt 0.073326 0.347981
vt 0.073326 0.344929
vt 0.181857 0.336028
vt 0.181857 0.330021
vt 0.161978 0.330021
vt 0.161978 0.336028
vt 0.151940 0.336028
vt 0.151940 0.330021
vt 0.155375 0.347874
vt 0.219005 0.347874
vt 0.219005 0.353882
vt 0.155375 0.353882
vt 0.762625 0.262052
vt 0.976704 0.262052
vt 0.976704 0.286476
vt 0.762625 0.286476
vt 0.179732 0.364225
vt 0.179732 0.358278
vt 0.268072 0.360347
vt 0.268062 0.364225
vt 0.075736 0.351800
vt 0.075701 0.351148
vt 0.081861 0.348288
vt 0.109749 0.347283
vt 0.270993 0.364225
vt 0.355866 0.093091
vt 0.437423 0.093091
vt 0.437423 0.101065
vt 0.355866 0.101065
vt 0.753438 0.257444
vt 0.756130 0.257443
vt 0.756080 0.281867
vt 0.753476 0.281868
vt 0.460225 0.093091
vt 0.460225 0.101065
vt 0.751632 0.281871
vt 0.751594 0.257447
vt 0.151249 0.347874
vt 0.151249 0.349964
vt 0.711683 0.093107
vt 0.988307 0.093107
vt 0.988307 0.101068
vt 0.711683 0.101068
vt 0.587499 0.093107
vt 0.587499 0.101068
vt 0.295310 0.347874
vt 0.295310 0.353882
vt 0.802548 0.259418
vt 0.757974 0.257447
vt 0.757925 0.281871
vt 0.026084 0.341733
vt 0.025957 0.336729
vt 0.087998 0.342162
vt 0.088363 0.344270
vt 0.111309 0.337999
vt 0.118424 0.336729
vt 0.118800 0.338835
vt 0.111685 0.340106
vt 0.088734 0.342031
vt 0.089112 0.344137
vt 0.071540 0.347760
vt 0.060200 0.347571
vt 0.027059 0.343435
vt 0.070893 0.347109
vt 0.118759 0.346087
vt 0.109396 0.344631
vt 0.118406 0.343435
vt 0.060354 0.348855
vt 0.027064 0.344664
vt 0.071431 0.347033
vt 0.106385 0.338879
vt 0.996470 0.093107
vt 0.996471 0.101068
vt 0.493059 0.093091
vt 0.493059 0.101065
vt 0.493154 0.363935
vt 0.151249 0.353882
vt 0.554613 0.093108
vt 0.554613 0.101069
vt 0.151890 0.358278
vt 0.151890 0.364225
vt 0.502779 0.093091
vt 0.502779 0.101065
vt 0.352460 0.093091
vt 0.352460 0.101065
vt 0.377359 0.340138
vt 0.377359 0.344043
vt 0.544997 0.093108
vt 0.544997 0.101069
vt 0.268062 0.358278
vn 0.9610 0.0000 -0.2767
vn 0.1507 0.0000 0.9886
vn 0.0000 1.0000 -0.0000
vn -0.9765 0.0000 0.2157
vn 0.9748 0.0000 -0.2229
vn 1.0000 0.0000 0.0000
vn -0.0000 0.0000 -1.0000
vn -1.0000 0.0000 0.0000
vn 0.0000 0.0000 1.0000
vn -0.9876 0.0000 0.1572
vn 0.0010 0.0025 -1.0000
vn 0.0076 0.0000 -1.0000
vn -0.9617 0.0000 0.2741
vn 0.9546 0.0000 0.2979
vn 0.0023 0.0000 1.0000
vn 0.1360 0.0000 0.9907
vn -0.0214 0.0000 -0.9998
vn 0.9653 0.0000 -0.2610
usemtl Material
s off
f 41/1/1 39/2/1 60/3/1 49/4/1
f 13/5/2 6/6/2 61/7/2 59/8/2
f 8/9/3 37/10/3 24/11/3
f 24/11/3 14/12/3 10/13/3 25/14/3
f 11/15/4 13/16/4 38/17/4
f 28/18/3 21/19/3 22/20/3 29/21/3
f 19/22/3 21/19/3 28/18/3
f 29/21/3 22/20/3 20/23/3
f 9/24/5 36/25/5 47/26/5 46/27/5
f 19/22/3 8/9/3 24/11/3 21/19/3
f 22/20/3 25/14/3 10/13/3 20/23/3
f 9/24/5 16/28/5 36/25/5
f 19/29/6 7/30/6 50/31/6 51/32/6
f 7/33/3 26/34/3 27/35/3 12/36/3
f 39/37/3 41/38/3 37/10/3 8/9/3
f 27/35/3 29/21/3 20/23/3 12/36/3
f 7/33/3 19/22/3 28/18/3 26/34/3
f 26/39/7 31/40/7 30/41/7 27/42/7
f 31/43/3 32/44/3 33/45/3 30/46/3
f 27/42/6 30/41/6 33/47/6 29/48/6
f 28/49/8 32/50/8 31/51/8 26/52/8
f 29/48/9 33/47/9 32/50/9 28/49/9
f 37/53/10 40/54/10 45/55/10 44/56/10
f 16/57/3 9/58/3 13/59/3 11/60/3
f 58/61/8 20/62/8 34/63/8 42/64/8
f 48/65/3 60/66/3 65/67/3 53/68/3
f 34/63/8 38/17/8 43/69/8 42/64/8
f 17/70/6 23/71/6 55/72/6 66/73/6
f 35/74/3 36/75/3 38/76/3 34/77/3
f 23/71/6 18/78/6 57/79/6 55/72/6
f 10/80/11 14/81/11 35/74/11 34/77/11
f 14/82/12 37/53/12 35/83/12
f 1/84/13 5/85/13 64/86/13 48/87/13
f 15/88/8 1/84/8 48/87/8 53/89/8
f 39/2/14 8/90/14 65/91/14 60/3/14
f 41/38/3 40/92/3 37/10/3
f 16/93/15 11/94/15 38/76/15 36/75/15
f 59/95/3 61/96/3 63/97/3 43/98/3
f 57/99/3 56/100/3 52/101/3 58/102/3
f 63/97/3 66/103/3 42/104/3 43/98/3
f 44/105/3 45/106/3 46/107/3 47/108/3
f 37/10/3 14/12/3 24/11/3
f 54/109/3 53/68/3 51/110/3 50/111/3
f 49/112/3 48/65/3 64/113/3
f 62/114/3 44/105/3 47/108/3
f 66/103/3 55/115/3 42/104/3
f 55/115/3 57/99/3 58/102/3 42/104/3
f 45/106/3 49/112/3 64/113/3 46/107/3
f 48/65/3 49/112/3 60/66/3
f 5/85/16 9/116/16 46/117/16 64/86/16
f 40/54/17 41/1/17 49/4/17 45/55/17
f 18/78/6 4/118/6 56/119/6 57/79/6
f 8/90/6 19/29/6 51/32/6 65/91/6
f 38/17/4 13/16/4 59/120/4 43/69/4
f 35/83/12 37/53/12 44/56/12 62/121/12
f 2/122/8 15/88/8 53/89/8 54/123/8
f 51/110/3 53/68/3 65/67/3
f 12/124/8 20/62/8 58/61/8 52/125/8
f 4/118/7 12/126/7 52/127/7 56/119/7
f 3/128/6 17/70/6 66/73/6 63/129/6
f 36/25/6 35/130/6 62/131/6 47/26/6
f 7/132/7 2/122/7 54/123/7 50/133/7
f 6/6/18 3/128/18 63/129/18 61/7/18
f 20/62/8 10/134/8 34/63/8
