# Blender v2.83.0 OBJ File: 'map.blend'
# www.blender.org
mtllib thirdfloor.mtl
o soraria3f_Plane.003
v -0.315209 0.073678 0.450601
v -0.016586 0.073678 0.370866
v -0.315209 0.073678 -0.311117
v -0.016586 0.073678 -0.311117
v 0.052569 0.073678 1.741416
v 0.342441 0.073678 1.698405
v -0.117452 0.112267 0.397798
v -0.134047 0.112267 0.704942
v -0.016586 0.112267 -0.311117
v 0.233414 0.112267 1.714582
v -0.046080 0.073678 0.378741
v 0.084444 0.112267 1.063534
v -0.046080 0.073678 -0.172768
v -0.315209 0.112267 0.450601
v -0.226867 0.112267 0.427013
v -0.099537 0.112267 -0.122028
v -0.099537 0.073678 -0.122028
v -0.099537 0.073678 0.393014
v -0.016586 0.112267 0.370866
v -0.285965 0.073678 -0.172757
v -0.148614 0.112267 0.705936
v -0.285965 0.073678 0.442793
v -0.046080 0.112267 0.378741
v -0.226867 0.073678 0.427013
v -0.134047 0.073678 0.704942
v -0.226867 0.112267 -0.122024
v -0.226867 0.073678 -0.122024
v 0.091455 0.112267 1.735646
v -0.285965 0.112267 0.442793
v -0.209915 0.112267 0.711080
v -0.285965 0.112267 -0.172757
v -0.099537 0.112267 0.393014
v -0.046080 0.112267 -0.172768
v -0.210014 0.073678 0.422513
v 0.091455 0.073678 1.735646
v -0.210014 0.112267 -0.104356
v -0.315209 0.112267 -0.311117
v -0.210014 0.073678 -0.104356
v -0.117452 0.073678 0.397798
v 0.233414 0.073678 1.714582
v -0.117452 0.112267 -0.105183
v 0.139100 0.112267 1.059950
v -0.210014 0.112267 0.422513
v -0.117452 0.073678 -0.105183
v 0.139100 0.073678 1.059950
v 0.084444 0.073678 1.063534
v 0.342441 0.112267 1.698405
v -0.209915 0.073678 0.711080
v 0.052569 0.112267 1.741416
v -0.148614 0.073678 0.705936
vt 0.905983 0.197027
vt 0.905948 0.197466
vt 0.892876 0.199802
vt 0.892362 0.199462
vt 0.733147 0.326498
vt 0.801761 0.326498
vt 0.801761 0.331762
vt 0.733147 0.331762
vt 0.905589 0.201728
vt 0.905524 0.202495
vt 0.888603 0.205518
vt 0.891905 0.204173
vt 0.905745 0.199873
vt 0.905706 0.200339
vt 0.892927 0.202622
vt 0.893265 0.202103
vt 0.890842 0.198221
vt 0.887279 0.198109
vt 0.906180 0.194732
vt 0.906116 0.195491
vt 0.667769 0.336351
vt 0.751742 0.336351
vt 0.751742 0.341616
vt 0.667769 0.341616
vt 0.913279 0.197651
vt 0.913327 0.198044
vt 0.913118 0.196160
vt 0.937941 0.197934
vt 0.923312 0.203303
vt 0.940055 0.205518
vt 0.939973 0.202741
vt 0.923159 0.201931
vt 0.797942 0.229805
vt 0.799105 0.218211
vt 0.948765 0.218211
vt 0.948765 0.229805
vt 0.760218 0.204505
vt 0.760768 0.196707
vt 0.784570 0.198431
vt 0.871138 0.212275
vt 0.987693 0.326498
vt 0.987693 0.331763
vt 0.809644 0.190631
vt 0.812744 0.177689
vt 0.871409 0.177689
vt 0.871409 0.190631
vt 0.046251 0.101072
vt 0.068969 0.101072
vt 0.068969 0.109026
vt 0.046251 0.109026
vt 0.352466 0.101071
vt 0.352466 0.109026
vt 0.691607 0.190591
vt 0.680604 0.177770
vt 0.827181 0.346221
vt 0.902081 0.346221
vt 0.902081 0.351485
vt 0.827181 0.351485
vt 0.608751 0.326498
vt 0.648648 0.326498
vt 0.648648 0.331762
vt 0.608751 0.331762
vt 0.680594 0.229805
vt 0.691602 0.218211
vt 0.644695 0.346221
vt 0.739548 0.346221
vt 0.739548 0.351485
vt 0.644695 0.351485
vt 0.941601 0.346221
vt 0.949993 0.346221
vt 0.949993 0.351485
vt 0.941601 0.351485
vt 0.870633 0.200576
vt 0.493054 0.101071
vt 0.493054 0.109026
vt 0.859704 0.336351
vt 0.956008 0.336351
vt 0.956008 0.341616
vt 0.859704 0.341616
vt 0.719920 0.212275
vt 0.718556 0.204846
vt 0.937974 0.198852
vt 0.464824 0.326499
vt 0.464824 0.331762
vt 0.784467 0.336351
vt 0.784467 0.341616
vt 0.554614 0.101071
vt 0.554614 0.109026
vt 0.720520 0.326498
vt 0.720520 0.331762
vt 0.809811 0.346221
vt 0.809811 0.351485
vt 0.711638 0.101071
vt 0.711639 0.109026
vt 0.637223 0.346221
vt 0.637223 0.351486
vt 0.988339 0.101071
vt 0.996443 0.101071
vt 0.996443 0.109026
vt 0.988339 0.109026
vt 0.629728 0.336351
vt 0.629728 0.341616
vn 0.0000 1.0000 0.0000
vn -1.0000 0.0000 -0.0000
vn 1.0000 0.0000 0.0000
vn -0.9663 0.0000 0.2575
vn 0.1468 0.0000 0.9892
vn 0.9653 0.0000 -0.2611
vn 0.9657 0.0000 -0.2597
vn 0.9644 0.0000 -0.2646
vn -0.0836 0.0000 -0.9965
vn -0.9650 0.0000 0.2623
vn 0.9769 0.0000 -0.2137
vn -0.9628 0.0000 0.2701
vn 0.0000 0.0000 -1.0000
vn -0.0654 0.0000 -0.9979
vn -0.9617 0.0000 0.2740
vn 0.9621 0.0000 -0.2727
vn 0.0000 0.0000 1.0000
vn 0.0089 0.0000 1.0000
usemtl Material
s off
f 15/1/1 43/2/1 36/3/1 26/4/1
f 44/5/2 39/6/2 7/7/2 41/8/2
f 23/9/1 19/10/1 9/11/1 33/12/1
f 7/13/1 32/14/1 16/15/1 41/16/1
f 31/17/1 33/12/1 9/11/1 37/18/1
f 14/19/1 29/20/1 31/17/1 37/18/1
f 22/21/3 20/22/3 31/23/3 29/24/3
f 43/2/1 15/1/1 21/25/1 8/26/1
f 21/25/1 30/27/1 49/28/1
f 19/10/1 42/29/1 47/30/1
f 32/14/1 7/13/1 10/31/1 12/32/1
f 11/33/1 18/34/1 46/35/1 45/36/1
f 39/37/1 34/38/1 25/39/1 40/40/1
f 39/6/4 40/41/4 10/42/4 7/7/4
f 30/27/1 14/19/1 49/28/1
f 24/43/1 22/44/1 48/45/1 50/46/1
f 40/47/5 6/48/5 47/49/5 10/50/5
f 19/10/1 23/9/1 42/29/1
f 6/48/6 2/51/6 19/52/6 47/49/6
f 42/29/1 12/32/1 47/30/1
f 22/44/1 24/43/1 27/53/1 20/54/1
f 27/55/2 24/56/2 15/57/2 26/58/2
f 25/59/7 34/60/7 43/61/7 8/62/7
f 18/34/1 11/33/1 13/63/1 17/64/1
f 46/65/8 18/66/8 32/67/8 12/68/8
f 50/69/9 48/70/9 30/71/9 21/72/9
f 40/40/1 25/39/1 35/73/1
f 2/51/3 4/74/3 9/75/3 19/52/3
f 16/15/1 26/4/1 36/3/1 41/16/1
f 29/20/1 14/19/1 30/27/1
f 11/76/10 45/77/10 42/78/10 23/79/10
f 34/38/1 39/37/1 44/80/1 38/81/1
f 17/64/1 13/63/1 20/54/1 27/53/1
f 8/26/1 21/25/1 49/28/1 28/82/1
f 12/32/1 10/31/1 47/30/1
f 35/83/11 25/59/11 8/62/11 28/84/11
f 24/56/12 50/69/12 21/72/12 15/57/12
f 13/85/2 11/76/2 23/79/2 33/86/2
f 4/74/13 3/87/13 37/88/13 9/75/13
f 34/60/3 38/89/3 36/90/3 43/61/3
f 17/91/13 27/55/13 26/58/13 16/92/13
f 3/87/2 1/93/2 14/94/2 37/88/2
f 45/95/14 46/65/14 12/68/14 42/96/14
f 5/97/5 35/98/5 28/99/5 49/100/5
f 1/93/15 5/97/15 49/100/15 14/94/15
f 48/101/16 22/21/16 29/24/16 30/102/16
f 20/22/17 13/85/17 33/86/17 31/23/17
f 38/89/18 44/5/18 41/8/18 36/90/18
f 18/66/3 17/91/3 16/92/3 32/67/3
