# Blender v2.83.0 OBJ File: 'map.blend'
# www.blender.org
mtllib underground.mtl
o Plane.001
v -0.374985 0.000000 2.720545
v 2.671387 0.000000 2.552001
v -1.258667 0.000000 -2.390481
v 1.491584 0.000000 -2.390481
v -2.283972 0.000000 -0.946682
v 2.636891 0.000000 -0.942280
v 0.223438 -0.102618 -1.656875
v 1.754461 -0.102618 -0.942280
v 1.754461 -0.102618 -0.830970
v 0.223438 -0.102618 -0.830970
v 0.378241 -0.102618 1.921528
v 0.020405 -0.102618 -0.830970
v 0.223438 0.000000 -0.942280
v 0.223438 0.000000 -0.830970
v 0.223438 0.000000 -1.656875
v 0.224218 -0.102618 0.390466
v 0.020405 0.000000 -0.942280
v 0.020405 0.000000 -0.830970
v 0.020405 0.000000 -1.656875
v 0.637986 -0.102618 1.886017
v 0.435520 -0.102618 1.913221
v 0.637986 0.000000 1.886017
v 0.435520 0.000000 1.913221
v 0.020405 -0.102618 -1.463476
v 0.224218 0.000000 0.390466
v 0.020405 0.000000 0.422835
v 0.284545 -0.102618 -1.655241
v 0.223438 -0.102618 -0.942280
v 0.223438 0.000000 -1.463476
v 0.020405 0.000000 -1.463476
v 0.223438 -0.102618 -1.463476
v -1.360983 0.000000 -0.942280
v -1.360983 0.000000 -0.830970
v -0.043939 0.000000 -1.654987
v -0.043938 0.000000 -1.462098
v 0.020405 -0.102618 -0.942280
v 1.754461 0.000000 -0.942280
v 1.754461 0.000000 -0.830970
v 0.284545 0.000000 -1.655241
v 0.284545 0.000000 -1.462283
v 0.585209 0.000000 1.695255
v 0.020405 -0.102618 0.422835
v 0.382700 0.000000 1.723582
v 0.020405 -0.102618 -1.656875
v 2.009946 0.000000 1.494473
v 2.036081 0.000000 1.685175
v 0.378241 0.000000 1.921528
v 0.349870 0.000000 1.728174
v 0.585209 -0.102618 1.695255
v 0.382700 -0.102618 1.723582
v 0.284545 -0.102618 -1.462283
v -1.360983 -0.102618 -0.942280
v -1.360983 -0.102618 -0.830970
v -0.043939 -0.102618 -1.654987
v -0.043938 -0.102618 -1.462098
v 2.009946 -0.102618 1.494473
v 2.036081 -0.102618 1.685175
v 0.349870 -0.102618 1.728174
v 0.550747 0.000000 2.335575
v 0.754780 0.000000 2.303941
v 0.435520 -0.102717 1.913221
v 0.637986 -0.102717 1.886017
v 0.550747 -0.102717 2.335575
v 0.754780 -0.102717 2.303941
vt 0.733759 0.023375
vt 0.736989 0.023015
vt 0.734114 0.024843
vt 0.733859 0.024520
vt 0.740940 0.022257
vt 0.740701 0.021548
vt 0.705432 0.036551
vt 0.703105 0.033304
vt 0.732024 0.021107
vt 0.731955 0.022073
vt 0.748992 0.011983
vt 0.737566 0.021271
vt 0.746050 0.011325
vt 0.471816 0.052011
vt 0.372553 0.052011
vt 0.372553 0.041625
vt 0.471816 0.041625
vt 0.338859 0.064918
vt 0.330751 0.064918
vt 0.330751 0.055268
vt 0.338859 0.055268
vt 0.746492 0.007547
vt 0.746151 0.010505
vt 0.735734 0.019317
vt 0.745516 0.007822
vt 0.214030 0.064172
vt 0.113408 0.064172
vt 0.113408 0.054746
vt 0.214030 0.054746
vt 0.263030 0.052011
vt 0.247559 0.052011
vt 0.247559 0.041625
vt 0.263030 0.041625
vt 0.105515 0.052126
vt 0.090254 0.052126
vt 0.090254 0.041556
vt 0.105515 0.041556
vt 0.752248 0.031980
vt 0.713138 0.011126
vt 0.724120 0.002611
vt 0.733501 0.014710
vt 0.560634 0.065328
vt 0.455829 0.065328
vt 0.455829 0.055604
vt 0.560634 0.055604
vt 0.734503 0.014765
vt 0.739608 0.001847
vt 0.744482 0.003773
vt 0.744231 0.004370
vt 0.105300 0.064172
vt 0.105300 0.054746
vt 0.734045 0.019199
vt 0.502704 0.015327
vt 0.560031 0.015327
vt 0.560031 0.023635
vt 0.502705 0.023635
vt 0.751508 0.015409
vt 0.749418 0.011730
vt 0.265655 0.052011
vt 0.265655 0.041625
vt 0.110349 0.052126
vt 0.110349 0.041556
vt 0.740541 0.036551
vt 0.099185 0.010084
vt 0.099185 0.030308
vt 0.088098 0.030308
vt 0.088098 0.010084
vt 0.694385 0.027438
vt 0.693935 0.027023
vt 0.575596 0.051641
vt 0.478896 0.051641
vt 0.478896 0.041146
vt 0.575596 0.041146
vt 0.028061 0.010084
vt 0.028061 0.030308
vt 0.002149 0.030308
vt 0.002149 0.010084
vt 0.064270 0.052126
vt 0.049015 0.052126
vt 0.049015 0.041556
vt 0.064270 0.041556
vt 0.028061 0.002909
vt 0.002149 0.002909
vt 0.453493 0.010084
vt 0.453493 0.030308
vt 0.432021 0.030308
vt 0.432021 0.010084
vt 0.626328 0.011672
vt 0.686274 0.011672
vt 0.686274 0.027237
vt 0.626328 0.027237
vt 0.263015 0.010084
vt 0.263015 0.030308
vt 0.028061 0.037936
vt 0.002149 0.037936
vt 0.560175 0.015354
vt 0.623711 0.015354
vt 0.623711 0.023611
vt 0.560175 0.023611
vt 0.432021 0.002487
vt 0.453493 0.002487
vt 0.242977 0.052011
vt 0.242977 0.041625
vt 0.004677 0.064172
vt 0.004677 0.054746
vt 0.219229 0.064918
vt 0.219229 0.055268
vt 0.151571 0.052126
vt 0.151571 0.041556
vt 0.682775 0.051641
vt 0.682775 0.041146
vt 0.069361 0.052126
vt 0.069361 0.041556
vt 0.450381 0.064918
vt 0.450381 0.055268
vt 0.043924 0.052126
vt 0.002703 0.052126
vt 0.002703 0.041556
vt 0.043924 0.041556
vt 0.677540 0.065328
vt 0.574655 0.065328
vt 0.574655 0.055604
vt 0.677540 0.055604
vt 0.085419 0.052126
vt 0.085419 0.041556
vt 0.752594 0.022684
vt 0.453511 0.010087
vt 0.497914 0.010087
vt 0.497914 0.030297
vt 0.453511 0.030297
vt 0.208264 0.051953
vt 0.191918 0.051953
vt 0.191918 0.041650
vt 0.208264 0.041650
vt 0.157564 0.051953
vt 0.157564 0.041650
vt 0.242924 0.051953
vt 0.242924 0.041650
vt 0.732019 0.022395
vt 0.731480 0.023062
vn 0.0000 1.0000 0.0000
vn 1.0000 0.0000 0.0000
vn -1.0000 0.0000 0.0000
vn 0.0000 0.0000 1.0000
vn 0.9894 0.0000 -0.1452
vn 0.1395 0.0000 0.9902
vn 0.1385 0.0000 0.9904
vn 0.0195 0.0000 -0.9998
vn -1.0000 0.0000 0.0006
vn -0.1435 0.0000 -0.9896
vn 0.0000 0.0000 -1.0000
vn -0.9638 0.0000 0.2666
vn 0.0293 0.0000 0.9996
vn -0.1422 0.0000 -0.9898
vn 0.9633 0.0000 -0.2683
vn -0.0214 0.0000 -0.9998
vn -0.0267 0.0000 0.9996
vn -0.9907 0.0000 0.1358
vn -0.1532 0.0000 -0.9882
vn -0.9631 0.0000 0.2691
vn 0.9647 0.0000 -0.2632
usemtl Material
s off
f 2/1/1 6/2/1 45/3/1 46/4/1
f 38/5/1 6/2/1 37/6/1
f 23/7/1 47/8/1 1/9/1 59/10/1
f 40/11/1 6/2/1 4/12/1 39/13/1
f 18/14/2 26/15/2 42/16/2 12/17/2
f 38/18/3 37/19/3 8/20/3 9/21/3
f 19/22/1 15/23/1 4/12/1 3/24/1
f 34/25/1 19/22/1 3/24/1
f 17/26/4 32/27/4 52/28/4 36/29/4
f 48/30/5 47/31/5 11/32/5 58/33/5
f 40/34/3 39/35/3 27/36/3 51/37/3
f 25/38/1 6/2/1 38/5/1
f 26/39/1 18/40/1 33/41/1
f 45/42/6 41/43/6 49/44/6 56/45/6
f 32/46/1 17/47/1 30/48/1 35/49/1
f 32/27/2 33/50/2 53/51/2 52/28/2
f 37/6/1 6/2/1 40/11/1
f 5/52/1 32/46/1 35/49/1
f 5/52/1 35/49/1 34/25/1 3/24/1
f 5/52/1 33/41/1 32/46/1
f 53/53/1 12/54/1 36/55/1 52/56/1
f 13/57/1 37/6/1 40/11/1 29/58/1
f 43/59/7 48/30/7 58/33/7 50/60/7
f 29/61/8 40/34/8 51/37/8 31/62/8
f 15/23/1 39/13/1 4/12/1
f 41/63/1 45/3/1 6/2/1 25/38/1
f 12/64/1 10/65/1 28/66/1 36/67/1
f 48/68/1 43/69/1 26/39/1 5/52/1
f 25/70/9 14/71/9 10/72/9 16/73/9
f 24/74/1 31/75/1 7/76/1 44/77/1
f 34/78/2 35/79/2 55/80/2 54/81/2
f 55/82/1 24/74/1 44/77/1 54/83/1
f 21/84/1 20/85/1 49/86/1 50/87/1
f 20/88/1 57/89/1 56/90/1 49/91/1
f 42/92/1 16/93/1 10/65/1 12/64/1
f 36/67/1 28/66/1 31/75/1 24/74/1
f 31/75/1 51/94/1 27/95/1 7/76/1
f 10/96/1 9/97/1 8/98/1 28/99/1
f 50/87/1 49/86/1 16/93/1 42/92/1
f 58/100/1 11/101/1 21/84/1 50/87/1
f 47/31/10 23/102/10 21/103/10 11/32/10
f 33/50/11 18/104/11 12/105/11 53/51/11
f 37/19/4 13/106/4 28/107/4 8/20/4
f 13/108/3 29/61/3 31/62/3 28/109/3
f 41/110/12 25/70/12 16/73/12 49/111/12
f 19/112/13 34/78/13 54/81/13 44/113/13
f 14/114/11 38/18/11 9/21/11 10/115/11
f 30/116/2 17/117/2 36/118/2 24/119/2
f 22/120/14 46/121/14 57/122/14 20/123/14
f 26/15/15 43/59/15 50/60/15 42/16/15
f 35/79/16 30/116/16 24/119/16 55/80/16
f 39/35/17 15/124/17 7/125/17 27/36/17
f 15/124/4 19/112/4 44/113/4 7/125/4
f 46/121/18 45/42/18 56/45/18 57/122/18
f 5/52/1 26/39/1 33/41/1
f 14/126/1 25/38/1 38/5/1
f 61/127/1 63/128/1 64/129/1 62/130/1
f 59/131/19 60/132/19 64/133/19 63/134/19
f 60/132/20 22/135/20 62/136/20 64/133/20
f 23/137/21 59/131/21 63/134/21 61/138/21
f 48/68/1 5/52/1 1/9/1 47/8/1
f 1/9/1 2/1/1 60/139/1 59/10/1
f 22/140/1 60/139/1 2/1/1 46/4/1
